# xmcd
#
# Track frame offsets: 
#        150
#        19447
#        37332
#        64862
#        87742
#        113237
#        137462
#
# Disc length: 2223 seconds
#
# Revision: 3
# Processed by: cddbd v1.5.2PL0 Copyright (c) Steve Scherf et al.
# Submitted via: ExactAudioCopy v0.95b4
#
DISCID=6608ad07
DTITLE=Robin S. - CD Maxi Single
DYEAR=1993
DGENRE=90's
TTITLE0=Luv 4 Luv (Stones Radio Edit)
TTITLE1=Luv 4 Luv (Radio Edit (Mellow Mix)
TTITLE2=Luv 4 Luv (Stones Club Mix)
TTITLE3=Luv 4 Luv (Nick Nice Club Mix)
TTITLE4=Luv 4 Luv (Stones Essential Mix)
TTITLE5=Luv 4 Luv (Stones)
TTITLE6=Luv 4 Luv (J.J.'s Mellow)
EXTD=
EXTT0=
EXTT1=
EXTT2=
EXTT3=
EXTT4=
EXTT5=
EXTT6=
PLAYORDER=
